<svg xmlns="http://www.w3.org/2000/svg" viewBox="0 0 32 32">
  <style>
    .c { fill: #FFF; stroke: #000; }
    .b { opacity: .75; }
    .d { fill: #E24; }
  </style>
  <rect class="c b" x="5.5" y="2.5" width="21" height="27" rx="2" ry="2" transform="rotate(-7 16 16)"></rect>
  <g transform="rotate(10 16 16)">
    <rect class="c" x="5.5" y="2.5" width="21" height="27" rx="2" ry="2"></rect>
    <rect class="d" x="7.5" y="4.5" width="3" height="3" rx=".5" ry=".5" transform="rotate(45 9 6)"></rect>
    <rect class="d" x="21.5" y="24.5" width="3" height="3" rx=".5" ry=".5" transform="rotate(45 23 26)"></rect>
    <path d="M7.6994702281,21.95061305l-.0000006492-1.6994557143,2.5508799177-.0000027324-.0000096705-7.934849053-.113344762,.0000001214-2.5367488482,1.7921540963-.0000023161-2.1622693052,2.6500934981-1.8967801518,2.3366458621-.0000025029,.0000120987,10.2017442923,2.5508799177-.0000027323,.0000006492,1.6994557143-7.4384056975,.0000079676Zm7.6507647741-6.2165324476c-.0000038197-3.5660005881,1.7088839255-5.9113671085,4.5505990291-5.9113701524,2.834864596-.0000030365,4.4989176422,2.3104845596,4.4989214992,5.9113604591l.0000005697,.5318484985c.0000038197,3.5660005881-1.7163572065,5.9113671165-4.5412574278,5.9113701424-2.8255229948,.0000030265-4.5082592528-2.3192033774-4.5082631005-5.911360449l-.0000005697-.5318484985Zm2.3534612954,.5144083219c.0000026897,2.511022419,.829538488,4.0106599195,2.1722379759,4.0106584813s2.1697409799-1.4996407132,2.1697382903-4.0106631322l-.0000005417-.5056920149c-.0000026803-2.5023035911-.8195740946-3.9932222745-2.1697468635-3.9932208283-1.3526638626,.0000014489-2.1722320829,1.490921888-2.1722294026,3.9932254792l.0000005417,.5056920149Z"></path>
  </g>
</svg>
