<svg xmlns="http://www.w3.org/2000/svg" width="40" height="40" viewBox="0 0 40 40">
	<path fill="#111" d="M27.74747,15.84187c-.0475-.00047-.09506-.00047-.14256,0-.85105-.00047-1.66343,.15579-2.41906,.42887,1.40731-1.27227,2.29601-3.09517,2.29856-5.12782-.03096-3.82139-3.1763-6.90238-7.04418-6.90019-3.85602,.00267-6.98126,3.09043-6.98392,6.90019-.0121,2.00727,.84749,3.81439,2.22194,5.08631-.69876-.24154-1.44603-.38155-2.22752-.38807-.05871-.00047-.11742-.00024-.17613,.00071-3.78308-.00759-6.85607,3.01624-6.86378,6.75395-.00012,.04875,.00036,.09749,.0013,.14624-.07407,3.73694,2.93209,6.82571,6.71439,6.89888,.0497,.00095,.09939,.00142,.14903,.0013l-.00095-.00006c2.76397,.04643,5.1704-1.51725,6.3211-3.81208-1.23687,7.0456-3.62664,8.57815-7.809,9.04237-.34354,.0679-.55412,.27155-.55412,.54748,.01797,.29467,.25565,.52963,.55388,.54748H29.09375c.29829-.01773,.53615-.25275,.55412-.54748,0-.27155-.20614-.47519-.55412-.54748-4.22417-.46985-6.66084-2.02873-7.87441-9.26025,1.1201,2.38046,3.5566,4.03161,6.38556,4.03001v-.00006c3.81771,.0389,6.94455-2.9873,6.98392-6.75929,.00047-.04691,.00047-.09388,0-.14084,.03938-3.77193-3.02359-6.86123-6.84136-6.90019Z"/>
</svg>
