<svg xmlns="http://www.w3.org/2000/svg" width="40" height="40" viewBox="0 0 40 40">
	<path fill="#111" d="M27.11761,30.08535c3.86147-.04875,6.97034-3.18531,6.98493-7.04708,0-1.77705-.85793-3.98358-2.81769-6.37275L21.17427,4.28913c-.30102-.37212-.84672-.42976-1.2189-.12875-.04726,.03831-.09044,.08142-.12875,.12875l-10.11152,12.37735c-1.96071,2.38917-2.81763,4.59569-2.81763,6.37281,.01506,3.86141,3.12375,6.99732,6.98487,7.04607,2.12498-.00498,4.08629-.95625,5.41899-2.51549-1.31794,5.56873-3.64116,6.87931-7.45484,7.30261-.3436,.0679-.55412,.27155-.55412,.54748,.01791,.29467,.25565,.52963,.55388,.54748H29.15346c.29829-.01773,.53621-.25275,.55418-.54748,0-.27155-.20619-.47519-.55418-.54748-3.82221-.42514-6.18079-1.74147-7.49433-7.34436,1.33312,1.58551,3.31358,2.55219,5.45848,2.55724Z"/>
</svg>
